<svg width="196" height="180" viewBox="0 0 196 180" fill="none" xmlns="http://www.w3.org/2000/svg">
<g clip-path="url(#clip0_22_19)">
<rect width="196" height="180" fill="#00021B"/>
<path d="M83.0703 106.01H103.85C103.85 108.4 103.45 110.7 102.7 112.84C102.69 112.87 102.68 112.9 102.67 112.93C101.88 115.18 100.71 117.25 99.2303 119.07C99.0103 119.34 98.7903 119.6 98.5603 119.86C98.0503 120.44 97.5003 120.98 96.9203 121.5C95.8603 122.45 94.7003 123.29 93.4603 124.01C92.2203 123.29 91.0603 122.45 90.0003 121.5C89.4203 120.99 88.8803 120.44 88.3603 119.86C88.1303 119.6 87.9003 119.34 87.6903 119.07C86.2203 117.25 85.0503 115.18 84.2503 112.93C84.2403 112.9 84.2303 112.87 84.2203 112.84C83.4803 110.7 83.0703 108.4 83.0703 106.01Z" fill="white"/>
<path d="M183.206 56.2558C185.623 60.4277 187.751 64.7847 189.569 69.3002C175.129 73.771 164.148 86.088 161.602 101.276L161.6 101.288C161.241 103.465 161.05 105.71 161.05 108C161.05 120.297 157.76 131.822 152.025 141.747C149.776 145.635 147.143 149.281 144.18 152.627L144.172 152.637C139.356 158.109 133.657 162.787 127.299 166.474C123.743 168.528 119.988 170.269 116.07 171.644L116.058 171.648C109.022 174.14 101.45 175.5 93.55 175.5C81.2529 175.5 69.7267 172.21 59.8016 166.474C49.5544 160.538 41.0116 151.996 35.0762 141.748C30.0458 133.044 26.8962 123.108 26.1977 112.5H53.2973C55.5362 132.748 72.7057 148.5 93.55 148.5C95.84 148.5 98.085 148.309 100.262 147.95L100.275 147.948C119.445 144.73 134.05 128.076 134.05 108C134.05 106.018 134.135 104.069 134.303 102.142L134.304 102.135C134.8 96.34 136.028 90.7668 137.9 85.4964L137.903 85.4881L137.906 85.4797C139.281 81.5623 141.022 77.8067 143.076 74.2514C145.324 70.3644 147.957 66.7191 150.92 63.3726L153.553 60.3978L150.927 57.4162C148.813 55.0152 146.54 52.7421 144.14 50.6277C140.347 47.2713 136.214 44.2856 131.803 41.7345L131.801 41.7337C127.779 39.4095 123.518 37.4318 119.058 35.8666C113.072 33.7411 106.75 32.3499 100.189 31.7868C97.9972 31.5954 95.7874 31.5 93.55 31.5C79.6272 31.5 66.5533 35.2296 55.2984 41.7338L55.2972 41.7345C50.8847 44.2863 46.7505 47.2729 42.9574 50.6304L39.1506 54L42.9574 57.3696C46.7505 60.7271 50.8847 63.7137 55.2972 66.2655L55.2984 66.2662C66.5457 72.7661 79.6096 76.495 93.5219 76.5C93.1737 77.6958 92.8456 78.9001 92.5383 80.1128C88.8797 94.4267 73.7757 102.671 59.8817 97.8978L59.7529 97.8509L59.5878 97.7909L59.4552 97.7427L59.3287 97.7056C59.3287 97.7056 59.3279 97.7053 59.3264 97.7048C59.3228 97.7036 59.3151 97.701 59.3023 97.6965C59.2672 97.6841 59.2263 97.6689 59.1401 97.6365L59.0991 97.6212L59.0579 97.6066C47.8492 93.6501 37.5397 87.825 28.4932 80.4939L28.4822 80.4849L28.4711 80.4761C27.146 79.416 25.84 78.3011 24.552 77.1477L24.5473 77.1435C21.6837 74.5864 18.9636 71.8663 16.4065 69.0027L16.4033 68.9991C12.2477 64.3556 8.50614 59.3363 5.23672 54C8.50614 48.6637 12.2477 43.6444 16.4033 39.0009L16.4065 38.9973C18.9636 36.1337 21.6837 33.4136 24.5473 30.8565L24.552 30.8523C25.84 29.6989 27.146 28.584 28.4711 27.5239L28.4822 27.5151L28.4932 27.5061C37.5399 20.1749 47.8498 14.3496 59.049 10.393L59.0897 10.3786L59.1301 10.3635C59.2164 10.3311 59.2572 10.3159 59.2923 10.3035C59.3052 10.299 59.3129 10.2964 59.3164 10.2952L59.417 10.2656L59.5225 10.2288C70.1704 6.51352 81.6195 4.5 93.55 4.5C105.481 4.5 116.93 6.51352 127.578 10.2288L127.683 10.2656L127.781 10.2944C127.781 10.2944 127.782 10.2947 127.784 10.2952C127.787 10.2963 127.795 10.299 127.808 10.3035C127.843 10.3159 127.884 10.3311 127.97 10.3635L128.048 10.3927L128.101 10.4104L128.15 10.4323L128.313 10.4902C134.242 12.5975 139.922 15.2314 145.294 18.3438L145.298 18.3462C149.974 21.0482 154.428 24.1137 158.604 27.5035L158.616 27.5137L158.629 27.5239C159.954 28.584 161.26 29.6989 162.548 30.8523L162.553 30.8565C165.416 33.4136 168.136 36.1337 170.693 38.9973L170.698 39.002C171.851 40.29 172.966 41.596 174.026 42.9211L174.036 42.9338L174.046 42.9465C177.436 47.1215 180.502 51.5758 183.204 56.2515L183.206 56.2558Z" fill="white" stroke="#00021B" stroke-width="9"/>
</g>
<defs>
<clipPath id="clip0_22_19">
<rect width="196" height="180" fill="white"/>
</clipPath>
</defs>
</svg>
